<svg width="430" height="113" viewBox="0 0 430 113" fill="none" xmlns="http://www.w3.org/2000/svg">
<path d="M8 101V31.7H54.8V44.8H23.6V58.4H51.3V71.2H23.6V87.9H57.1V101H8ZM90.3188 101C87.5854 95.2 84.8854 89.1667 82.2188 82.9C79.5521 76.6333 77.0188 70.4333 74.6188 64.3C72.2188 58.1667 69.9854 52.3 67.9188 46.7C65.9188 41.1 64.1854 36.1 62.7188 31.7H79.9188C81.2521 35.7 82.6854 40.0333 84.2188 44.7C85.8188 49.3 87.4188 53.9 89.0188 58.5C90.6854 63.1 92.2854 67.5 93.8188 71.7C95.3521 75.9 96.7854 79.5333 98.1188 82.6C99.3854 79.5333 100.785 75.9 102.319 71.7C103.919 67.5 105.519 63.1 107.119 58.5C108.785 53.9 110.385 49.3 111.919 44.7C113.519 40.0333 114.985 35.7 116.319 31.7H132.919C131.385 36.1 129.619 41.1 127.619 46.7C125.619 52.3 123.419 58.1667 121.019 64.3C118.619 70.4333 116.085 76.6333 113.419 82.9C110.752 89.1667 108.052 95.2 105.319 101H90.3188ZM141.887 101V31.7H188.687V44.8H157.487V58.4H185.187V71.2H157.487V87.9H190.987V101H141.887ZM249.031 101C244.565 93.0667 239.731 85.2333 234.531 77.5C229.331 69.7667 223.798 62.4667 217.931 55.6V101H202.531V31.7H215.231C217.431 33.9 219.865 36.6 222.531 39.8C225.198 43 227.898 46.4333 230.631 50.1C233.431 53.7 236.198 57.4667 238.931 61.4C241.665 65.2667 244.231 69 246.631 72.6V31.7H262.131V101H249.031ZM329.517 31.7V45H308.617V101H293.017V45H272.117V31.7H329.517ZM350.299 66.3C350.299 69.7 350.699 72.7667 351.499 75.5C352.366 78.2333 353.566 80.6 355.099 82.6C356.699 84.5333 358.633 86.0333 360.899 87.1C363.166 88.1667 365.766 88.7 368.699 88.7C371.566 88.7 374.133 88.1667 376.399 87.1C378.733 86.0333 380.666 84.5333 382.199 82.6C383.799 80.6 384.999 78.2333 385.799 75.5C386.666 72.7667 387.099 69.7 387.099 66.3C387.099 62.9 386.666 59.8333 385.799 57.1C384.999 54.3 383.799 51.9333 382.199 50C380.666 48 378.733 46.4667 376.399 45.4C374.133 44.3333 371.566 43.8 368.699 43.8C365.766 43.8 363.166 44.3667 360.899 45.5C358.633 46.5667 356.699 48.1 355.099 50.1C353.566 52.0333 352.366 54.4 351.499 57.2C350.699 59.9333 350.299 62.9667 350.299 66.3ZM403.199 66.3C403.199 72.2333 402.299 77.4667 400.499 82C398.766 86.4667 396.366 90.2333 393.299 93.3C390.233 96.3 386.566 98.5667 382.299 100.1C378.099 101.633 373.566 102.4 368.699 102.4C363.966 102.4 359.499 101.633 355.299 100.1C351.099 98.5667 347.433 96.3 344.299 93.3C341.166 90.2333 338.699 86.4667 336.899 82C335.099 77.4667 334.199 72.2333 334.199 66.3C334.199 60.3667 335.133 55.1667 336.999 50.7C338.866 46.1667 341.366 42.3667 344.499 39.3C347.699 36.2333 351.366 33.9333 355.499 32.4C359.699 30.8667 364.099 30.1 368.699 30.1C373.433 30.1 377.899 30.8667 382.099 32.4C386.299 33.9333 389.966 36.2333 393.099 39.3C396.233 42.3667 398.699 46.1667 400.499 50.7C402.299 55.1667 403.199 60.3667 403.199 66.3Z" fill="black"/>
<path d="M383.273 25.89C383.201 25.881 383.128 25.8719 383.054 25.8628C381.149 25.6289 378.538 25.3872 375.749 25.3655C372.979 25.344 369.926 25.5379 367.179 26.2272C364.481 26.9043 361.71 28.152 359.979 30.5282C357.348 34.1413 358.446 38.4127 359.599 41.0965C360.212 42.524 360.944 43.7541 361.513 44.619C361.801 45.0551 362.052 45.4072 362.236 45.6552C362.328 45.7794 362.404 45.878 362.459 45.9485C362.486 45.9838 362.508 46.0121 362.525 46.0331L362.546 46.0591L362.553 46.068L362.556 46.0714L362.557 46.0728C362.557 46.0734 362.558 46.074 364.5 44.5L362.558 46.074L363.527 47.2701L365.028 46.9436L365.028 46.9436L365.029 46.9434L365.03 46.9431L365.031 46.9429L365.04 46.941C365.054 46.9382 365.077 46.9334 365.11 46.9269C365.176 46.9139 365.28 46.894 365.418 46.8697C365.695 46.821 366.108 46.7549 366.626 46.6903C367.666 46.5606 369.106 46.4405 370.707 46.4748C374.014 46.5458 377.512 47.2651 379.823 49.3545C382.431 51.712 383.732 56.1356 384.265 60.5431C384.521 62.6599 384.581 64.6101 384.577 66.0338C384.575 66.7433 384.557 67.3163 384.539 67.7067C384.531 67.9018 384.522 68.0508 384.516 68.1482C384.513 68.1968 384.511 68.2325 384.509 68.2545L384.508 68.2772L384.507 68.2787L384.507 68.2797L384.507 68.2803L384.507 68.2806L384.299 70.9718H387H403.181H405.681V68.4718V47.2918H424.557H427.057V44.7918V28.7918V26.2918H424.557H405.681V5.11182V2.61182H403.181H385.773H383.273V5.11182V25.89Z" fill="black" stroke="white" stroke-width="5"/>
</svg>
